<mxfile host="Electron" modified="2023-12-06T03:45:53.797Z" agent="Mozilla/5.0 (X11; Linux x86_64) AppleWebKit/537.36 (KHTML, like Gecko) draw.io/22.1.2 Chrome/114.0.5735.289 Electron/25.9.4 Safari/537.36" etag="jxe3F-LYIakPIEilNb1t" version="22.1.2" type="device" pages="5">
  <diagram name="HLD-arch" id="10SLt3vqDwuO0nkdjIOx">
    <mxGraphModel dx="1434" dy="766" grid="1" gridSize="10" guides="1" tooltips="1" connect="1" arrows="1" fold="1" page="1" pageScale="1" pageWidth="1169" pageHeight="827" math="0" shadow="0">
      <root>
        <mxCell id="0" />
        <mxCell id="1" parent="0" />
        <mxCell id="4E0OlR0AoeK0BvPysRsT-1" value="Code Foundation Shop (CFS)" style="shape=hexagon;perimeter=hexagonPerimeter2;whiteSpace=wrap;html=1;fixedSize=1;fillColor=#dae8fc;strokeColor=#6c8ebf;fontStyle=0;fontSize=18;strokeWidth=1;shadow=1;" parent="1" vertex="1">
          <mxGeometry x="515" y="180" width="580" height="40" as="geometry" />
        </mxCell>
        <mxCell id="4E0OlR0AoeK0BvPysRsT-2" value="App Menu" style="shape=parallelogram;perimeter=parallelogramPerimeter;whiteSpace=wrap;html=1;fixedSize=1;fillColor=#ffe6cc;strokeColor=#d79b00;" parent="1" vertex="1">
          <mxGeometry x="535" y="240" width="160" height="60" as="geometry" />
        </mxCell>
        <mxCell id="4E0OlR0AoeK0BvPysRsT-3" value="Capability" style="shape=parallelogram;perimeter=parallelogramPerimeter;whiteSpace=wrap;html=1;fixedSize=1;fillColor=#ffe6cc;strokeColor=#d79b00;" parent="1" vertex="1">
          <mxGeometry x="713" y="240" width="170" height="60" as="geometry" />
        </mxCell>
        <mxCell id="4E0OlR0AoeK0BvPysRsT-4" value="Business Rules" style="shape=parallelogram;perimeter=parallelogramPerimeter;whiteSpace=wrap;html=1;fixedSize=1;fillColor=#ffe6cc;strokeColor=#d79b00;" parent="1" vertex="1">
          <mxGeometry x="905" y="240" width="171" height="60" as="geometry" />
        </mxCell>
        <mxCell id="4E0OlR0AoeK0BvPysRsT-5" value="&lt;b&gt;Git Integration&lt;br&gt;&lt;/b&gt;&lt;br&gt;- GitHub&lt;br&gt;- GitLab&lt;br&gt;- Gitea" style="rounded=1;whiteSpace=wrap;html=1;align=center;fillColor=#dae8fc;strokeColor=#6c8ebf;" parent="1" vertex="1">
          <mxGeometry x="738" y="320" width="120" height="80" as="geometry" />
        </mxCell>
        <mxCell id="4E0OlR0AoeK0BvPysRsT-6" value="&lt;div style=&quot;&quot;&gt;&lt;b style=&quot;background-color: initial;&quot;&gt;Kubernetes&lt;/b&gt;&lt;/div&gt;&lt;br&gt;- Operator" style="rounded=1;whiteSpace=wrap;html=1;align=center;fillColor=#dae8fc;strokeColor=#6c8ebf;" parent="1" vertex="1">
          <mxGeometry x="739" y="420" width="120" height="76" as="geometry" />
        </mxCell>
        <mxCell id="4E0OlR0AoeK0BvPysRsT-7" value="&lt;b&gt;Secrets Integration&lt;/b&gt;&lt;br&gt;&lt;br&gt;- Hashicorp vault" style="rounded=1;whiteSpace=wrap;html=1;align=center;fillColor=#dae8fc;strokeColor=#6c8ebf;" parent="1" vertex="1">
          <mxGeometry x="739" y="510" width="120" height="80" as="geometry" />
        </mxCell>
        <mxCell id="4E0OlR0AoeK0BvPysRsT-8" value="&lt;b&gt;Golden Paths&lt;/b&gt;&lt;br&gt;&lt;br&gt;- Spring Boot&lt;br&gt;- NodeJS&lt;br&gt;- Quarkus 3" style="rounded=1;whiteSpace=wrap;html=1;align=center;fillColor=#dae8fc;strokeColor=#6c8ebf;" parent="1" vertex="1">
          <mxGeometry x="555" y="320" width="120" height="80" as="geometry" />
        </mxCell>
        <mxCell id="4E0OlR0AoeK0BvPysRsT-11" value="&lt;b&gt;Dry-Run Checks&lt;/b&gt;&lt;br&gt;&lt;br&gt;- Health" style="rounded=1;whiteSpace=wrap;html=1;align=center;fillColor=#dae8fc;strokeColor=#6c8ebf;" parent="1" vertex="1">
          <mxGeometry x="925" y="320" width="120" height="80" as="geometry" />
        </mxCell>
        <mxCell id="4E0OlR0AoeK0BvPysRsT-12" value="&lt;h1&gt;Open Integration Framework&lt;/h1&gt;&lt;div&gt;&lt;br&gt;&lt;/div&gt;&lt;div&gt;- Written in Go&lt;/div&gt;&lt;div&gt;- Open Source, available on GitHub&lt;/div&gt;&lt;div&gt;- Extensible capabilities&lt;/div&gt;&lt;div&gt;- API contract-based development. inputs outputs (I-O) is all that matters.&lt;/div&gt;&lt;div&gt;&lt;br&gt;&lt;/div&gt;" style="text;html=1;strokeColor=#d6b656;fillColor=#fff2cc;spacing=5;spacingTop=-20;whiteSpace=wrap;overflow=hidden;rounded=0;" parent="1" vertex="1">
          <mxGeometry x="105" y="630" width="410" height="170" as="geometry" />
        </mxCell>
        <mxCell id="C0W5qT7kvPj5lcszYcYw-1" value="&lt;h1&gt;Welcome to Code Foundation Shop&lt;/h1&gt;&lt;div&gt;- Minimal and unattractive IDP written entirely in Go&lt;/div&gt;&lt;div&gt;- Deployable on a container that exposes a REST web API&lt;/div&gt;&lt;div&gt;&lt;span style=&quot;background-color: initial;&quot;&gt;- Supports multiple capabilities: github, gitlab, gitea, kubernetes, hashicorp vault&lt;/span&gt;&lt;/div&gt;&lt;div&gt;- GitOps opinionated. Business Rules written declaratively&lt;/div&gt;&lt;div&gt;- Comes with an addon CLI (cfs) written in Rust to call the REST web API&lt;/div&gt;" style="text;html=1;strokeColor=#d6b656;fillColor=#fff2cc;spacing=5;spacingTop=-20;whiteSpace=wrap;overflow=hidden;rounded=0;" parent="1" vertex="1">
          <mxGeometry x="555" y="630" width="510" height="170" as="geometry" />
        </mxCell>
        <mxCell id="KYSwrCxNl7OzeNkuyL1q-1" value="Dev Requester" style="shape=umlActor;verticalLabelPosition=bottom;verticalAlign=top;html=1;outlineConnect=0;" parent="1" vertex="1">
          <mxGeometry x="90" y="60" width="30" height="60" as="geometry" />
        </mxCell>
        <mxCell id="2ICjozhHIiWb4r7ofzIY-3" value="" style="edgeStyle=orthogonalEdgeStyle;rounded=0;orthogonalLoop=1;jettySize=auto;html=1;" parent="1" source="KYSwrCxNl7OzeNkuyL1q-2" target="2ICjozhHIiWb4r7ofzIY-2" edge="1">
          <mxGeometry relative="1" as="geometry" />
        </mxCell>
        <mxCell id="2ICjozhHIiWb4r7ofzIY-4" value="version control declaratively written request" style="edgeLabel;html=1;align=center;verticalAlign=middle;resizable=0;points=[];" parent="2ICjozhHIiWb4r7ofzIY-3" vertex="1" connectable="0">
          <mxGeometry x="-0.2" relative="1" as="geometry">
            <mxPoint as="offset" />
          </mxGeometry>
        </mxCell>
        <mxCell id="KYSwrCxNl7OzeNkuyL1q-2" value="Request Contract (YAML)" style="swimlane;whiteSpace=wrap;html=1;" parent="1" vertex="1">
          <mxGeometry x="210" y="60" width="200" height="200" as="geometry" />
        </mxCell>
        <mxCell id="KYSwrCxNl7OzeNkuyL1q-7" value="kind: cfs-request&lt;br&gt;spec:&lt;br&gt;..." style="text;html=1;align=center;verticalAlign=middle;resizable=0;points=[];autosize=1;strokeColor=none;fillColor=none;" parent="KYSwrCxNl7OzeNkuyL1q-2" vertex="1">
          <mxGeometry y="30" width="110" height="60" as="geometry" />
        </mxCell>
        <mxCell id="KYSwrCxNl7OzeNkuyL1q-4" value="" style="endArrow=classic;html=1;rounded=0;exitX=1;exitY=0.3333333333333333;exitDx=0;exitDy=0;exitPerimeter=0;entryX=0;entryY=0.1;entryDx=0;entryDy=0;entryPerimeter=0;" parent="1" source="KYSwrCxNl7OzeNkuyL1q-1" target="KYSwrCxNl7OzeNkuyL1q-2" edge="1">
          <mxGeometry width="50" height="50" relative="1" as="geometry">
            <mxPoint x="160" y="110" as="sourcePoint" />
            <mxPoint x="210" y="60" as="targetPoint" />
          </mxGeometry>
        </mxCell>
        <mxCell id="KYSwrCxNl7OzeNkuyL1q-6" value="write order file" style="edgeLabel;html=1;align=center;verticalAlign=middle;resizable=0;points=[];" parent="KYSwrCxNl7OzeNkuyL1q-4" vertex="1" connectable="0">
          <mxGeometry x="-0.6667" y="-3" relative="1" as="geometry">
            <mxPoint x="25" y="-23" as="offset" />
          </mxGeometry>
        </mxCell>
        <mxCell id="KYSwrCxNl7OzeNkuyL1q-5" value="" style="endArrow=classic;html=1;exitX=0.995;exitY=0.105;exitDx=0;exitDy=0;exitPerimeter=0;entryX=0.5;entryY=0;entryDx=0;entryDy=0;curved=1;" parent="1" source="KYSwrCxNl7OzeNkuyL1q-2" target="4E0OlR0AoeK0BvPysRsT-1" edge="1">
          <mxGeometry width="50" height="50" relative="1" as="geometry">
            <mxPoint x="520" y="110" as="sourcePoint" />
            <mxPoint x="570" y="60" as="targetPoint" />
            <Array as="points">
              <mxPoint x="790" y="80" />
            </Array>
          </mxGeometry>
        </mxCell>
        <mxCell id="2ICjozhHIiWb4r7ofzIY-2" value="Git Repo" style="shape=document;whiteSpace=wrap;html=1;boundedLbl=1;fillColor=#d5e8d4;strokeColor=#82b366;" parent="1" vertex="1">
          <mxGeometry x="210" y="330" width="200" height="60" as="geometry" />
        </mxCell>
        <mxCell id="3dS_kzBVbe_Fa7Cau68I-1" value="&lt;h1&gt;cfs-operator&lt;/h1&gt;&lt;div&gt;&lt;br&gt;&lt;/div&gt;&lt;div&gt;- Fully written in Rust&lt;/div&gt;&lt;div&gt;- provides custom CRDs to:&lt;/div&gt;&lt;div&gt;&amp;nbsp; - create ns&lt;/div&gt;&lt;div&gt;&amp;nbsp; - create netpol&lt;/div&gt;&lt;div&gt;&amp;nbsp; - sets the ns managed by an ArgoCD (if set)&lt;/div&gt;" style="text;html=1;strokeColor=#d6b656;fillColor=#fff2cc;spacing=5;spacingTop=-20;whiteSpace=wrap;overflow=hidden;rounded=0;" vertex="1" parent="1">
          <mxGeometry x="350" y="430" width="363" height="150" as="geometry" />
        </mxCell>
      </root>
    </mxGraphModel>
  </diagram>
  <diagram id="XMexX8lA3PpCt2ZBEYGj" name="Golden-Paths">
    <mxGraphModel dx="1434" dy="766" grid="1" gridSize="10" guides="1" tooltips="1" connect="1" arrows="1" fold="1" page="1" pageScale="1" pageWidth="1169" pageHeight="827" math="0" shadow="0">
      <root>
        <mxCell id="0" />
        <mxCell id="1" parent="0" />
        <mxCell id="G-iDbhAMsFQu6QxFNJVD-5" value="Spring Boot App" style="swimlane;whiteSpace=wrap;html=1;fillColor=#dae8fc;strokeColor=#6c8ebf;" parent="1" vertex="1">
          <mxGeometry x="80" y="80" width="160" height="140" as="geometry" />
        </mxCell>
        <mxCell id="G-iDbhAMsFQu6QxFNJVD-6" value="Propose a gradle structure" style="text;html=1;align=center;verticalAlign=middle;resizable=0;points=[];autosize=1;strokeColor=none;fillColor=none;" parent="G-iDbhAMsFQu6QxFNJVD-5" vertex="1">
          <mxGeometry y="38" width="160" height="30" as="geometry" />
        </mxCell>
        <mxCell id="G-iDbhAMsFQu6QxFNJVD-7" value="Quarkus 3 App" style="swimlane;whiteSpace=wrap;html=1;fillColor=#dae8fc;strokeColor=#6c8ebf;" parent="1" vertex="1">
          <mxGeometry x="280" y="80" width="160" height="140" as="geometry" />
        </mxCell>
        <mxCell id="G-iDbhAMsFQu6QxFNJVD-8" value="Propose gradle structure" style="text;html=1;align=center;verticalAlign=middle;resizable=0;points=[];autosize=1;strokeColor=none;fillColor=none;" parent="G-iDbhAMsFQu6QxFNJVD-7" vertex="1">
          <mxGeometry x="5" y="38" width="150" height="30" as="geometry" />
        </mxCell>
        <mxCell id="X1FPrvlMns8Lii86kNFo-1" value="NodeJS" style="swimlane;whiteSpace=wrap;html=1;fillColor=#dae8fc;strokeColor=#6c8ebf;" parent="1" vertex="1">
          <mxGeometry x="475" y="80" width="160" height="140" as="geometry" />
        </mxCell>
        <mxCell id="X1FPrvlMns8Lii86kNFo-2" value="Propose vanilla npm app" style="text;html=1;align=center;verticalAlign=middle;resizable=0;points=[];autosize=1;strokeColor=none;fillColor=none;" parent="X1FPrvlMns8Lii86kNFo-1" vertex="1">
          <mxGeometry y="38" width="160" height="30" as="geometry" />
        </mxCell>
        <mxCell id="cDmLjwCiybaBEKbWl4Dp-1" value="&lt;h1&gt;I-O&lt;/h1&gt;&lt;div&gt;I:&lt;/div&gt;&lt;div&gt;- Type of App (spring boot, quarkus, nodejs)&lt;/div&gt;&lt;div&gt;- framework version&lt;/div&gt;&lt;div&gt;&lt;br&gt;&lt;/div&gt;&lt;div&gt;O:&lt;/div&gt;&lt;div&gt;- bool pass/fail and string error (if any): Git clone of the sample app template into a target git repo&lt;/div&gt;" style="text;html=1;strokeColor=#d6b656;fillColor=#fff2cc;spacing=5;spacingTop=-20;whiteSpace=wrap;overflow=hidden;rounded=0;" parent="1" vertex="1">
          <mxGeometry x="80" y="280" width="480" height="170" as="geometry" />
        </mxCell>
      </root>
    </mxGraphModel>
  </diagram>
  <diagram id="1ksVfTT-OggCPXoFUXDX" name="Git-Capability">
    <mxGraphModel dx="1434" dy="766" grid="1" gridSize="10" guides="1" tooltips="1" connect="1" arrows="1" fold="1" page="1" pageScale="1" pageWidth="1169" pageHeight="827" math="0" shadow="0">
      <root>
        <mxCell id="0" />
        <mxCell id="1" parent="0" />
        <mxCell id="2WzrvIonVG7N0YWBlDHK-1" value="GItHub" style="swimlane;whiteSpace=wrap;html=1;fillColor=#dae8fc;strokeColor=#6c8ebf;" parent="1" vertex="1">
          <mxGeometry x="80" y="80" width="160" height="140" as="geometry" />
        </mxCell>
        <mxCell id="2WzrvIonVG7N0YWBlDHK-2" value="Repo creation&lt;br&gt;Repo update&lt;br&gt;&lt;br&gt;Organization create" style="text;html=1;align=center;verticalAlign=middle;resizable=0;points=[];autosize=1;strokeColor=none;fillColor=none;" parent="2WzrvIonVG7N0YWBlDHK-1" vertex="1">
          <mxGeometry x="15" y="50" width="130" height="70" as="geometry" />
        </mxCell>
        <mxCell id="SGb7uDf51tAEEA5Lk_jn-1" value="&amp;nbsp; &amp;nbsp; &amp;nbsp;Create a new repo within an existing org" style="shape=parallelogram;perimeter=parallelogramPerimeter;whiteSpace=wrap;html=1;fixedSize=1;fillColor=#ffe6cc;strokeColor=#d79b00;align=left;" parent="1" vertex="1">
          <mxGeometry x="285" y="90" width="300" height="40" as="geometry" />
        </mxCell>
        <mxCell id="QMQNA_9XXbFT60LEpMxO-1" value="&amp;nbsp; &amp;nbsp; &amp;nbsp;Create a new branch for an existing repo" style="shape=parallelogram;perimeter=parallelogramPerimeter;whiteSpace=wrap;html=1;fixedSize=1;fillColor=#ffe6cc;strokeColor=#d79b00;align=left;" parent="1" vertex="1">
          <mxGeometry x="285" y="140" width="300" height="40" as="geometry" />
        </mxCell>
        <mxCell id="QMQNA_9XXbFT60LEpMxO-2" value="&amp;nbsp; &amp;nbsp; &amp;nbsp;Create an organization" style="shape=parallelogram;perimeter=parallelogramPerimeter;whiteSpace=wrap;html=1;fixedSize=1;fillColor=#ffe6cc;strokeColor=#d79b00;align=left;" parent="1" vertex="1">
          <mxGeometry x="285" y="190" width="300" height="40" as="geometry" />
        </mxCell>
        <mxCell id="wyD8KFvovuRtHzbNLPl--1" value="&lt;h1&gt;I-O&lt;/h1&gt;&lt;div&gt;I:&lt;/div&gt;&lt;div&gt;- Type of Git system (GitHub, Gitlab, Gitea)&lt;/div&gt;&lt;div&gt;- Authentication using user&#39;s PAT fetched from env var&lt;/div&gt;&lt;div&gt;- Org owner&lt;/div&gt;&lt;div&gt;- Repo name. If exists. Ask for new branch name&lt;/div&gt;&lt;div&gt;&lt;br&gt;&lt;/div&gt;&lt;div&gt;O:&lt;/div&gt;&lt;div&gt;- string URL of git repo/ref: Create a new repo or new branch for an existing branch&lt;/div&gt;" style="text;html=1;strokeColor=#d6b656;fillColor=#fff2cc;spacing=5;spacingTop=-20;whiteSpace=wrap;overflow=hidden;rounded=0;" parent="1" vertex="1">
          <mxGeometry x="80" y="280" width="480" height="170" as="geometry" />
        </mxCell>
      </root>
    </mxGraphModel>
  </diagram>
  <diagram name="Vault-capability" id="dDftP88xE3KjHC-Ohadd">
    <mxGraphModel dx="1434" dy="766" grid="1" gridSize="10" guides="1" tooltips="1" connect="1" arrows="1" fold="1" page="1" pageScale="1" pageWidth="1169" pageHeight="827" math="0" shadow="0">
      <root>
        <mxCell id="lEYXmVfq8DL8e_IC5yt8-0" />
        <mxCell id="lEYXmVfq8DL8e_IC5yt8-1" parent="lEYXmVfq8DL8e_IC5yt8-0" />
        <mxCell id="lEYXmVfq8DL8e_IC5yt8-2" value="Vault HashiCorp" style="swimlane;whiteSpace=wrap;html=1;fillColor=#dae8fc;strokeColor=#6c8ebf;" parent="lEYXmVfq8DL8e_IC5yt8-1" vertex="1">
          <mxGeometry x="80" y="80" width="160" height="140" as="geometry" />
        </mxCell>
        <mxCell id="lEYXmVfq8DL8e_IC5yt8-3" value="Create vault entry" style="text;html=1;align=center;verticalAlign=middle;resizable=0;points=[];autosize=1;strokeColor=none;fillColor=none;" parent="lEYXmVfq8DL8e_IC5yt8-2" vertex="1">
          <mxGeometry x="20" y="70" width="120" height="30" as="geometry" />
        </mxCell>
        <mxCell id="lEYXmVfq8DL8e_IC5yt8-4" value="&amp;nbsp; &amp;nbsp; &amp;nbsp;Create sample vault entry at desired path" style="shape=parallelogram;perimeter=parallelogramPerimeter;whiteSpace=wrap;html=1;fixedSize=1;fillColor=#ffe6cc;strokeColor=#d79b00;align=left;" parent="lEYXmVfq8DL8e_IC5yt8-1" vertex="1">
          <mxGeometry x="285" y="90" width="300" height="40" as="geometry" />
        </mxCell>
        <mxCell id="lEYXmVfq8DL8e_IC5yt8-7" value="&lt;h1&gt;I-O&lt;/h1&gt;&lt;div&gt;I:&lt;/div&gt;&lt;div&gt;- Vault path (/app/env/secret...)&lt;/div&gt;&lt;div&gt;&lt;br&gt;&lt;/div&gt;&lt;div&gt;O:&lt;/div&gt;&lt;div&gt;- string URL to vault path with a sample secret created&lt;/div&gt;&lt;div&gt;- git code change + PR to ensure proper RBAC to the new path&lt;/div&gt;" style="text;html=1;strokeColor=#d6b656;fillColor=#fff2cc;spacing=5;spacingTop=-20;whiteSpace=wrap;overflow=hidden;rounded=0;" parent="lEYXmVfq8DL8e_IC5yt8-1" vertex="1">
          <mxGeometry x="80" y="280" width="480" height="170" as="geometry" />
        </mxCell>
      </root>
    </mxGraphModel>
  </diagram>
  <diagram id="-gtYDcw6xMrK_NhUQGBc" name="Business-Rules">
    <mxGraphModel dx="1434" dy="766" grid="1" gridSize="10" guides="1" tooltips="1" connect="1" arrows="1" fold="1" page="1" pageScale="1" pageWidth="1169" pageHeight="827" math="0" shadow="0">
      <root>
        <mxCell id="0" />
        <mxCell id="1" parent="0" />
        <mxCell id="iff_oDIuCrhnNvFYundt-1" value="Dry-Run" style="swimlane;whiteSpace=wrap;html=1;fillColor=#dae8fc;strokeColor=#6c8ebf;" parent="1" vertex="1">
          <mxGeometry x="80" y="80" width="160" height="140" as="geometry" />
        </mxCell>
        <mxCell id="iff_oDIuCrhnNvFYundt-2" value="Platform Health" style="text;html=1;align=center;verticalAlign=middle;resizable=0;points=[];autosize=1;strokeColor=none;fillColor=none;" parent="iff_oDIuCrhnNvFYundt-1" vertex="1">
          <mxGeometry x="25" y="70" width="110" height="30" as="geometry" />
        </mxCell>
        <mxCell id="k9YIH_Fmjy7zSWdrF54F-1" value="&amp;nbsp; &amp;nbsp; &amp;nbsp;Are the systems up?" style="shape=parallelogram;perimeter=parallelogramPerimeter;whiteSpace=wrap;html=1;fixedSize=1;fillColor=#ffe6cc;strokeColor=#d79b00;align=left;" parent="1" vertex="1">
          <mxGeometry x="285" y="90" width="300" height="40" as="geometry" />
        </mxCell>
        <mxCell id="k9YIH_Fmjy7zSWdrF54F-2" value="&amp;nbsp; &amp;nbsp; &amp;nbsp;Do the systems&#39; APIs respond with 200/OK?" style="shape=parallelogram;perimeter=parallelogramPerimeter;whiteSpace=wrap;html=1;fixedSize=1;fillColor=#ffe6cc;strokeColor=#d79b00;align=left;" parent="1" vertex="1">
          <mxGeometry x="285" y="140" width="300" height="40" as="geometry" />
        </mxCell>
        <mxCell id="k9YIH_Fmjy7zSWdrF54F-3" value="&amp;nbsp; &amp;nbsp; &amp;nbsp;Gating&amp;nbsp; step before actually provisioning" style="shape=parallelogram;perimeter=parallelogramPerimeter;whiteSpace=wrap;html=1;fixedSize=1;fillColor=#ffe6cc;strokeColor=#d79b00;align=left;" parent="1" vertex="1">
          <mxGeometry x="280" y="190" width="300" height="40" as="geometry" />
        </mxCell>
        <mxCell id="GVmi55rvJrO8M95hQxzr-1" value="&lt;h1&gt;I-O&lt;/h1&gt;&lt;div&gt;I:&lt;/div&gt;&lt;div&gt;- All inputs to the the capabilities and golden paths results into systems to verify&lt;/div&gt;&lt;div&gt;&lt;br&gt;&lt;/div&gt;&lt;div&gt;O:&lt;/div&gt;&lt;div&gt;-&amp;nbsp; bool ready/not-ready and string error (if any). ready = dry-run success. allow operation to go through&lt;/div&gt;" style="text;html=1;strokeColor=#d6b656;fillColor=#fff2cc;spacing=5;spacingTop=-20;whiteSpace=wrap;overflow=hidden;rounded=0;" parent="1" vertex="1">
          <mxGeometry x="80" y="280" width="480" height="170" as="geometry" />
        </mxCell>
        <mxCell id="3WFpnLM5GFLlOVXoTm6m-1" value="Other BR" style="swimlane;whiteSpace=wrap;html=1;fillColor=#dae8fc;strokeColor=#6c8ebf;" parent="1" vertex="1">
          <mxGeometry x="660" y="80" width="160" height="140" as="geometry" />
        </mxCell>
        <mxCell id="3WFpnLM5GFLlOVXoTm6m-2" value="XYZ..." style="text;html=1;align=center;verticalAlign=middle;resizable=0;points=[];autosize=1;strokeColor=none;fillColor=none;" parent="3WFpnLM5GFLlOVXoTm6m-1" vertex="1">
          <mxGeometry x="50" y="70" width="60" height="30" as="geometry" />
        </mxCell>
        <mxCell id="3WFpnLM5GFLlOVXoTm6m-3" value="&amp;nbsp; &amp;nbsp; &amp;nbsp;Other functions can be coded&lt;br&gt;&amp;nbsp; &amp;nbsp; &amp;nbsp; &amp;nbsp;and queued up as part of BR" style="shape=parallelogram;perimeter=parallelogramPerimeter;whiteSpace=wrap;html=1;fixedSize=1;fillColor=#ffe6cc;strokeColor=#d79b00;align=left;" parent="1" vertex="1">
          <mxGeometry x="840" y="90" width="300" height="50" as="geometry" />
        </mxCell>
      </root>
    </mxGraphModel>
  </diagram>
</mxfile>
